Coordinates
version=1
nRows=8
nColumns=36
inDegrees=yes

Units are S.I. units (second, meters, Newtons, ...)
If the header above contains a line with 'inDegrees', this indicates whether rotational values are in degrees (yes) or radians (no).

endheader
time	pelvis_tilt	pelvis_list	pelvis_rotation	pelvis_tx	pelvis_ty	pelvis_tz	hip_flexion_r	hip_adduction_r	hip_rotation_r	knee_angle_r	knee_angle_r_beta	ankle_angle_r	subtalar_angle_r	mtp_angle_r	hip_flexion_l	hip_adduction_l	hip_rotation_l	knee_angle_l	knee_angle_l_beta	ankle_angle_l	subtalar_angle_l	mtp_angle_l	lumbar_extension	lumbar_bending	lumbar_rotation	arm_flex_r	arm_add_r	arm_rot_r	elbow_flex_r	pro_sup_r	arm_flex_l	arm_add_l	arm_rot_l	elbow_flex_l	pro_sup_l
      4.61666670	     -5.23487777	     -4.19530605	     -4.48779218	      0.34652426	      0.74423427	     -0.12617158	     53.97855635	     -6.83721051	     -1.50521559	     87.94942007	      1.53500696	     23.60754401	    -14.09773792	     -7.49999987	     55.80742417	     -6.91409626	      9.12778247	     93.03603159	      1.62378507	     19.90826193	    -19.50383193	     -7.49999987	    -39.17069515	      2.29825976	     -5.46354417	     21.17306599	    -13.03718635	     11.00124025	    104.66407338	     87.83516116	     27.75550702	     -2.36967105	     18.04713423	    106.88054965	     69.18877389
      4.62083330	     -5.07109333	     -4.17251316	     -4.54075741	      0.34656036	      0.74362877	     -0.12992665	     53.98501839	     -6.92564896	     -1.36323446	     87.97143810	      1.53539124	     23.40196690	    -14.48305634	     -7.49999987	     55.83557458	     -6.73402048	      8.99139546	     93.20389239	      1.62671480	     19.72922554	    -19.78765553	     -7.49999987	    -39.70484535	      2.39641277	     -5.41154161	     21.68887967	    -12.99021934	     10.97800340	    104.75476100	     87.79993519	     28.39024450	     -2.63806996	     18.18315424	    107.04656828	     69.05059506
      4.62500000	     -4.91920154	     -4.09398047	     -4.52279371	      0.34750818	      0.74544585	     -0.12908024	     53.80245286	     -6.99816367	     -1.28244548	     87.81261406	      1.53261924	     23.18799722	    -14.71079883	     -7.49999987	     55.74835185	     -6.61826035	      8.88878713	     93.16162921	      1.62597717	     19.46335859	    -19.77602997	     -7.49999987	    -40.12285480	      2.37864591	     -5.40583345	     21.98127010	    -12.83887562	     10.89606900	    104.77915149	     87.89831841	     28.83678532	     -2.82975331	     18.28616035	    107.07049804	     68.93948390
      4.62916670	     -4.81830021	     -4.03534701	     -4.49873027	      0.34684703	      0.74608723	     -0.12900498	     53.76569267	     -7.00710535	     -1.18621376	     87.80879679	      1.53255262	     22.91404459	    -14.99556535	     -7.49999987	     55.70777253	     -6.51524681	      8.86920305	     93.13333208	      1.62548329	     19.17398235	    -19.88923545	     -7.49999987	    -40.41752470	      2.41616183	     -5.40184787	     22.09882272	    -12.67217187	     10.86086602	    104.95261432	     87.64522018	     29.20965696	     -3.10049783	     18.40498712	    107.15008181	     68.74707930
      4.63333330	     -4.71552341	     -4.06168784	     -4.51280543	      0.34626788	      0.74747109	     -0.12765983	     53.68222982	     -6.86256722	     -1.22968736	     87.77275227	      1.53192352	     22.57514433	    -15.48637468	     -7.49999987	     55.64463467	     -6.57486399	      8.97326570	     93.07417861	      1.62445087	     18.78302995	    -19.91761758	     -7.49999987	    -40.71307989	      2.36251955	     -5.29548892	     22.12011573	    -12.41658462	     10.78203870	    105.00546789	     87.16288575	     29.64192047	     -3.40381831	     18.49615330	    107.23434187	     68.54524999
      4.63750000	     -4.56994624	     -4.07563176	     -4.52203803	      0.34628767	      0.74816442	     -0.12797664	     53.57010131	     -6.74252339	     -1.26202683	     87.73723288	      1.53130359	     22.36131540	    -15.85084367	     -7.49999987	     55.57082485	     -6.63883551	      9.05455501	     93.04626486	      1.62396368	     18.36220843	    -19.92817441	     -7.49999987	    -41.03199777	      2.30276692	     -5.20719953	     22.22139981	    -12.23077497	     10.68417918	    105.14459895	     86.76882720	     30.02380007	     -3.61421946	     18.64718258	    107.40587242	     68.30359820
      4.64166670	     -4.51344163	     -4.05950049	     -4.52446746	      0.34619255	      0.74956352	     -0.12956869	     53.53770124	     -6.69422291	     -1.21670978	     87.67100645	      1.53014772	     21.89937399	    -16.24942784	     -7.49999987	     55.49615423	     -6.65872887	      8.96327111	     92.88911827	      1.62122095	     18.01116447	    -19.90441263	     -7.49999987	    -41.24963142	      2.24433826	     -5.09581750	     22.54192276	    -12.22325008	     10.52916434	    104.95133874	     85.44612741	     30.44585469	     -3.77894395	     18.91716443	    107.39004884	     67.81479901
      4.64583330	     -4.51387795	     -3.97828963	     -4.54352147	      0.34557151	      0.75043094	     -0.13006594	     53.54947490	     -6.66801286	     -1.09020082	     87.57533249	      1.52847790	     21.92117793	    -16.22626538	     -7.49999987	     55.48496365	     -6.65177399	      8.76716642	     92.78465525	      1.61939773	     18.05750343	    -19.59752712	     -7.49999987	    -41.10799932	      2.08080165	     -4.98316810	     22.80928768	    -12.11047675	     10.39560439	    104.05696343	     84.51380799	     30.69406622	     -3.67097816	     18.88684001	    106.54967086	     67.47656456
